<svg width="12" height="20" viewBox="0 0 12 20" fill="none" xmlns="http://www.w3.org/2000/svg">
<path d="M9.48184 0.583008C9.05684 0.583008 8.65684 0.783008 8.43184 1.00801L1.03184 8.50801C0.731836 8.80801 0.631836 9.23301 0.631836 9.63301C0.631836 10.058 0.731836 10.483 1.03184 10.783L8.43184 18.808C8.75684 19.133 9.05684 19.333 9.48184 19.333C9.90684 19.333 10.3068 19.233 10.6318 18.908C10.9318 18.608 11.1568 18.183 11.1568 17.758C11.1568 17.358 11.0318 16.933 10.6318 16.633L4.28184 9.63301L10.6318 3.08301C10.8318 2.88301 11.0318 2.55801 11.0318 2.13301C11.0318 1.73301 10.9318 1.30801 10.6318 1.00801C10.2068 0.683008 9.90684 0.583008 9.48184 0.583008Z" fill="#EEEEEE" fill-opacity="0.9"/>
</svg>
